HIERARCHY
ROOT Hips
{
	OFFSET 0.000000 0.000000 0.000000
	CHANNELS 6 Xposition Yposition Zposition Xrotation Yrotation Zrotation
	JOINT LeftUpLeg_virtual
	{
		OFFSET 0.000000 0.000000 0.000000
		CHANNELS 3 Xrotation Yrotation Zrotation
		JOINT LeftUpLeg
		{
			OFFSET 10.205400 -3.823500 0.155100
			CHANNELS 3 Xrotation Yrotation Zrotation
			JOINT LeftLeg
			{
				OFFSET 0.708757 -12.982077 0.567790
				CHANNELS 3 Xrotation Yrotation Zrotation
				JOINT LeftFoot
				{
					OFFSET -0.708756 -10.717838 -2.184338
					CHANNELS 3 Xrotation Yrotation Zrotation
					JOINT LeftToeBase
					{
						OFFSET 0.108149 -7.191104 7.560241
						CHANNELS 3 Xrotation Yrotation Zrotation
						JOINT LeftToe_End
						{
							OFFSET 0.070230 0.081724 4.490308
							CHANNELS 3 Xrotation Yrotation Zrotation
							End Site
							{
								OFFSET 0 0 0
							}
						}
					}
				}
			}
		}
	}
	JOINT RightUpLeg_virtual
	{
		OFFSET 0.000000 0.000000 0.000000
		CHANNELS 3 Xrotation Yrotation Zrotation
		JOINT RightUpLeg
		{
			OFFSET -10.205400 -3.823500 0.005500
			CHANNELS 3 Xrotation Yrotation Zrotation
			JOINT RightLeg
			{
				OFFSET -0.708756 -12.982134 0.610632
				CHANNELS 3 Xrotation Yrotation Zrotation
				JOINT RightFoot
				{
					OFFSET 0.708754 -10.717769 -1.945823
					CHANNELS 3 Xrotation Yrotation Zrotation
					JOINT RightToeBase
					{
						OFFSET -0.108140 -7.191069 7.372968
						CHANNELS 3 Xrotation Yrotation Zrotation
						JOINT RightToe_End
						{
							OFFSET -0.070227 0.081735 4.479403
							CHANNELS 3 Xrotation Yrotation Zrotation
							End Site
							{
								OFFSET 0 0 0
							}
						}
					}
				}
			}
		}
	}
	JOINT Spine_virtual
	{
		OFFSET 0.000000 0.000000 0.000000
		CHANNELS 3 Xrotation Yrotation Zrotation
		JOINT Spine
		{
			OFFSET 0.000000 6.876099 0.125700
			CHANNELS 3 Xrotation Yrotation Zrotation
			JOINT Spine1
			{
				OFFSET 0.000000 5.730043 0.104720
				CHANNELS 3 Xrotation Yrotation Zrotation
				JOINT Spine1_split
				{
					OFFSET 0.000000 5.730043 0.104720
					CHANNELS 3 Xrotation Yrotation Zrotation
					JOINT Spine2
					{
						OFFSET 0.000000 5.730043 0.104720
						CHANNELS 3 Xrotation Yrotation Zrotation
						JOINT Neck_virtual
						{
							OFFSET 0.000000 0.000000 0.000000
							CHANNELS 3 Xrotation Yrotation Zrotation
							JOINT Neck
							{
								OFFSET 0.000000 10.314075 0.188496
								CHANNELS 3 Xrotation Yrotation Zrotation
								JOINT Head
								{
									OFFSET 0.000000 7.643700 -2.377400
									CHANNELS 3 Xrotation Yrotation Zrotation
									JOINT HeadTop_End
									{
										OFFSET 0.000000 43.788605 -13.619600
										CHANNELS 3 Xrotation Yrotation Zrotation
										End Site
										{
											OFFSET 0 0 0
										}
									}
								}
							}
						}
						JOINT LeftShoulder_virtual
						{
							OFFSET 0.000000 0.000000 0.000000
							CHANNELS 3 Xrotation Yrotation Zrotation
							JOINT LeftShoulder
							{
								OFFSET 2.196100 4.412489 0.087492
								CHANNELS 3 Xrotation Yrotation Zrotation
								JOINT LeftShoulder_split
								{
									OFFSET 2.196100 4.412489 0.087492
									CHANNELS 3 Xrotation Yrotation Zrotation
									JOINT LeftArm
									{
										OFFSET 8.771219 -2.981674 -0.026999
										CHANNELS 3 Xrotation Yrotation Zrotation
										JOINT LeftForeArm
										{
											OFFSET 8.512804 0.000000 -0.000000
											CHANNELS 3 Xrotation Yrotation Zrotation
											JOINT LeftHand
											{
												OFFSET 18.484802 0.000000 -0.000000
												CHANNELS 3 Xrotation Yrotation Zrotation
												End Site
												{
													OFFSET 0 0 0
												}
											}
										}
									}
								}
							}
						}
						JOINT RightShoulder_virtual
						{
							OFFSET 0.000000 0.000000 0.000000
							CHANNELS 3 Xrotation Yrotation Zrotation
							JOINT RightShoulder
							{
								OFFSET -2.196100 4.412496 0.070690
								CHANNELS 3 Xrotation Yrotation Zrotation
								JOINT RightShoulder_split
								{
									OFFSET -2.196100 4.412496 0.070690
									CHANNELS 3 Xrotation Yrotation Zrotation
									JOINT RightArm
									{
										OFFSET -8.771282 -2.981682 -0.094208
										CHANNELS 3 Xrotation Yrotation Zrotation
										JOINT RightForeArm
										{
											OFFSET -8.494598 0.000000 0.000000
											CHANNELS 3 Xrotation Yrotation Zrotation
											JOINT RightHand
											{
												OFFSET -18.483803 0.000000 0.000001
												CHANNELS 3 Xrotation Yrotation Zrotation
												End Site
												{
													OFFSET 0 0 0
												}
											}
										}
									}
								}
							}
						}
					}
				}
			}
		}
	}
}
MOTION
Frames: 9
Frame Time: 0.03333333
-3.314381 30.867781 18.134764 0.000000 0.000000 0.000000 27.255660 1.635078 -15.139405 -77.082947 -8.097147 19.013126 38.844935 7.750720 -9.966082 15.962970 -2.401098 9.516628 -1.395694 0.792093 -0.147009 0.000000 0.000000 0.000000 27.293101 6.082826 -16.693476 10.617165 -22.898421 -18.099511 80.610794 8.168637 -2.183286 24.542316 -0.068999 14.006759 18.618519 -0.854697 0.424822 0.000000 0.000000 0.000000 26.538126 4.646573 -17.001205 6.553003 14.480927 -10.295406 12.172857 11.698077 -7.219717 1.726615 2.212742 0.386225 0.000000 0.000000 0.000000 12.203619 11.003082 -7.542726 -11.053922 -6.943698 7.215092 -26.042369 -32.187707 19.569452 0.000000 0.000000 0.000000 11.650889 11.741644 -7.570479 0.035281 5.944557 4.582015 -3.821100 0.016063 -1.073790 31.282813 -41.284074 -15.726169 0.225134 -29.462369 -0.714369 0.000000 0.000000 0.000000 11.742781 11.015707 -8.015934 5.153366 14.256260 -6.493152 0.167660 4.460090 -0.658870 -18.035085 58.148105 33.377946 -2.008422 40.926828 -0.213921 0.000000 0.000000 0.000000 
-3.397269 30.653975 18.804298 0.000000 0.000000 0.000000 25.380469 2.903464 -14.338811 -75.713644 -7.061625 18.658637 40.785812 7.148097 -10.662300 13.046982 -2.345328 9.452005 -1.107645 0.719405 -0.248713 0.000000 0.000000 0.000000 25.279585 6.608760 -15.710881 6.702350 -23.072336 -17.045845 77.234577 8.470416 -1.974695 22.670294 -0.618114 10.409479 19.206162 -0.900051 0.109477 0.000000 0.000000 0.000000 24.482374 5.481311 -16.245617 6.419071 12.876272 -10.597548 12.599322 10.787615 -7.353203 1.515374 2.371195 0.297047 0.000000 0.000000 0.000000 12.442534 10.226086 -7.695600 -11.243158 -6.660859 6.731458 -26.101564 -31.811524 20.112597 0.000000 0.000000 0.000000 11.716621 11.024827 -7.685882 0.161841 5.375928 5.480411 -3.867046 -1.004559 -1.784609 29.354688 -43.746856 -8.303253 0.468393 -27.695224 -0.483105 0.000000 0.000000 0.000000 11.974096 10.290857 -8.082351 4.902726 13.655082 -5.517667 0.741209 3.346367 -0.411758 -17.209613 54.257851 27.058716 -1.965357 39.710679 0.028823 0.000000 0.000000 0.000000 
-3.398126 30.560547 19.483236 0.000000 0.000000 0.000000 23.670331 4.219442 -13.696394 -73.918513 -5.593107 18.201189 42.361561 6.289349 -11.084567 10.358382 -2.432071 9.422996 -0.942047 0.672523 -0.399358 0.000000 0.000000 0.000000 23.195370 7.564106 -15.012629 3.015032 -23.556660 -16.099111 73.261914 8.952122 -1.940856 21.358676 -0.483772 6.542361 18.506468 -0.665022 0.561620 0.000000 0.000000 0.000000 22.450777 6.499615 -15.652598 6.278107 11.283113 -10.845109 13.026100 9.594018 -7.480968 1.454629 2.246508 0.190746 0.000000 0.000000 0.000000 12.755932 9.178231 -7.865716 -11.374110 -6.478287 6.272622 -25.771989 -31.178055 20.797745 0.000000 0.000000 0.000000 11.904146 9.986807 -7.797295 0.294899 4.655903 6.236173 -3.755719 -1.817503 -2.394684 25.794112 -46.965409 -2.476092 0.680082 -25.194124 -0.138952 0.000000 0.000000 0.000000 12.377368 9.296226 -8.167490 4.863250 13.243801 -5.637856 1.056663 2.187458 -0.332702 -17.012142 51.057211 22.080967 -1.874694 37.396782 0.248481 0.000000 0.000000 0.000000 
-3.319835 30.570789 20.162056 0.000000 0.000000 0.000000 21.972445 5.647808 -13.290574 -71.601618 -3.897927 17.784826 43.775304 5.168277 -11.170462 8.040777 -2.608344 9.412080 -1.179170 0.648023 -0.548799 0.000000 0.000000 0.000000 21.085682 8.772634 -14.601257 -0.674854 -24.072988 -15.523454 68.713984 9.902638 -2.389379 21.718204 0.579834 4.131677 14.142293 -0.432937 2.100666 0.000000 0.000000 0.000000 20.473330 7.679200 -15.268642 6.149957 9.551283 -11.062625 13.476834 8.039226 -7.520726 1.422672 1.997929 0.079847 0.000000 0.000000 0.000000 13.126819 7.739170 -7.935134 -11.379689 -6.350078 5.895561 -24.998897 -30.064806 21.640823 0.000000 0.000000 0.000000 12.238311 8.528439 -7.837433 0.416491 3.824324 6.797517 -3.684887 -2.127627 -2.759253 20.159834 -50.487119 1.041819 0.762042 -22.036369 0.241348 0.000000 0.000000 0.000000 12.897006 7.901670 -8.173765 5.001849 12.954509 -6.830699 1.136579 1.319902 -0.468108 -16.762181 48.560425 17.685346 -1.721540 34.998449 0.372501 0.000000 0.000000 0.000000 
-3.158511 30.651096 20.944820 0.000000 0.000000 0.000000 20.234739 6.989109 -13.154462 -68.880948 -2.063562 17.559624 45.124003 3.959233 -10.908045 5.867136 -2.780858 9.694330 -1.488565 0.622332 -0.746164 0.000000 0.000000 0.000000 19.068783 10.002689 -14.484427 -4.203770 -24.373014 -15.262251 63.013078 11.083913 -3.187653 22.808688 2.165937 3.185945 7.602065 -0.579259 4.898549 0.000000 0.000000 0.000000 18.430560 8.758606 -15.153968 6.055865 7.615246 -11.231463 13.932379 6.153580 -7.420427 1.499338 1.749275 -0.158753 0.000000 0.000000 0.000000 13.489834 5.919041 -7.836876 -11.208810 -6.192090 5.589626 -23.858959 -28.407959 22.612697 0.000000 0.000000 0.000000 12.696205 6.641225 -7.730995 0.498737 2.985856 7.251223 -3.522150 -2.076608 -2.746446 12.397062 -53.594739 1.836348 0.636555 -18.709558 0.576655 0.000000 0.000000 0.000000 13.465311 6.100065 -8.061794 5.256036 12.602806 -8.855675 1.106288 0.663554 -0.638768 -16.813323 46.666987 13.841419 -1.545605 33.541184 0.412576 0.000000 0.000000 0.000000 
-2.901285 30.779879 21.759140 0.000000 0.000000 0.000000 18.429681 8.092655 -13.346237 -65.812861 -0.186447 17.676261 46.196558 2.815535 -10.358297 3.561857 -2.891580 10.336144 -1.521181 0.597586 -0.972140 0.000000 0.000000 0.000000 17.234720 11.027678 -14.647522 -7.231826 -24.357525 -15.003026 55.802919 12.089175 -4.055148 22.932847 3.520422 2.530113 2.083967 -1.229742 8.541081 0.000000 0.000000 0.000000 16.382144 9.415435 -15.296504 5.977468 5.499725 -11.300626 14.356819 4.017841 -7.154875 1.629957 1.701991 -0.365507 0.000000 0.000000 0.000000 13.832215 3.806132 -7.542540 -10.907970 -5.962399 5.354569 -22.530455 -26.224933 23.606027 0.000000 0.000000 0.000000 13.171744 4.450064 -7.445354 0.525036 2.290556 7.656324 -3.363468 -1.861455 -2.329014 2.848909 -55.883307 0.091652 0.304133 -15.986708 0.805135 0.000000 0.000000 0.000000 13.983982 3.974176 -7.785403 5.489096 12.129516 -11.320182 0.922611 0.007239 -0.572632 -18.445257 45.337047 11.241239 -1.380093 33.339116 0.380000 0.000000 0.000000 0.000000 
-2.548598 30.941349 22.532417 0.000000 0.000000 0.000000 16.514743 8.623293 -13.807957 -62.473582 1.678125 18.222164 46.619617 1.814615 -9.619266 0.989363 -2.982947 11.029612 -1.357228 0.583787 -1.066412 0.000000 0.000000 0.000000 15.659397 11.529190 -15.082856 -9.918100 -23.976302 -14.574326 47.845151 12.341332 -4.580044 21.553186 4.104322 1.703738 -0.408578 -2.019665 11.994684 0.000000 0.000000 0.000000 14.387358 9.386289 -15.655815 5.894614 3.345771 -11.179092 14.682019 1.771293 -6.743535 1.659345 1.971511 -0.365666 0.000000 0.000000 0.000000 14.100675 1.552228 -7.074359 -10.628034 -5.591750 5.091628 -21.268451 -23.578800 24.504434 0.000000 0.000000 0.000000 13.579122 2.145349 -6.992391 0.495487 1.768944 8.097929 -3.225764 -1.533573 -1.554854 -7.292491 -57.184536 -3.310185 -0.148892 -14.399109 0.911294 0.000000 0.000000 0.000000 14.357710 1.710068 -7.346445 5.573047 11.518889 -13.644517 0.795417 -0.564870 -0.288356 -23.052751 44.435807 11.023915 -1.262762 34.375355 0.310585 0.000000 0.000000 0.000000 
-2.091461 31.174570 23.198414 0.000000 0.000000 0.000000 14.727276 8.217307 -14.518484 -58.855057 3.518304 19.109563 46.263870 1.046818 -8.750061 -1.536427 -3.022833 11.509890 -1.198419 0.565198 -0.915231 0.000000 0.000000 0.000000 14.259163 11.171158 -15.731068 -12.846377 -23.425626 -14.125423 40.053059 11.964944 -4.527892 20.270471 4.206041 1.613736 -0.350219 -2.477935 14.013563 0.000000 0.000000 0.000000 12.554979 8.526468 -16.206137 5.808831 1.346740 -10.781527 14.860805 -0.410101 -6.232752 1.712697 2.300706 -0.438936 0.000000 0.000000 0.000000 14.228695 -0.626825 -6.494619 -10.502738 -5.121874 4.743392 -20.271877 -20.736558 25.225707 0.000000 0.000000 0.000000 13.826839 -0.075650 -6.421023 0.416323 1.460093 8.633404 -3.025884 -1.582356 -0.491551 -16.623016 -57.648012 -7.226720 -0.599398 -14.155093 0.900344 0.000000 0.000000 0.000000 14.538862 -0.475635 -6.779249 5.490343 10.884176 -15.447321 0.608110 -1.164254 0.204746 -31.455446 43.692102 14.237003 -1.230389 35.789542 0.267869 0.000000 0.000000 0.000000 
-1.578408 31.520525 23.680206 0.000000 0.000000 0.000000 13.189088 6.770247 -15.479447 -55.106929 5.181986 20.254764 45.112245 0.502335 -7.848766 -3.517700 -2.898984 11.377952 -1.082282 0.542646 -0.552347 0.000000 0.000000 0.000000 12.999736 9.979983 -16.596969 -16.397624 -22.622963 -13.571489 32.700726 11.816400 -3.881611 20.131462 4.592318 3.983833 0.076009 -2.595085 13.791670 0.000000 0.000000 0.000000 10.993728 6.951029 -16.914024 5.745182 -0.329314 -10.029875 14.879840 -2.382560 -5.667567 1.738050 2.522659 -0.500244 0.000000 0.000000 0.000000 14.201054 -2.577966 -5.860982 -10.693073 -4.581651 4.297431 -19.591056 -17.962725 25.725940 0.000000 0.000000 0.000000 13.899097 -2.054495 -5.807562 0.311743 1.333341 9.297102 -2.821293 -1.633285 0.532120 -24.554925 -57.801097 -11.175474 -0.983721 -14.997632 0.817349 0.000000 0.000000 0.000000 14.509750 -2.416836 -6.126325 5.278652 10.359307 -16.452503 0.302180 -1.485592 0.578890 -43.315769 42.246769 21.039558 -1.276165 36.956166 0.299120 0.000000 0.000000 0.000000 
